{
  "accessors": [
    {
      "bufferView": 2,
      "componentType": 5126,
      "count": 224,
      "max": [
        1.0,
        1.712649941444397,
        1.0
      ],
      "min": [
        -1.0,
        -1.541216254234314,
        -1.0
      ],
      "type": "VEC3"
    },
    {
      "bufferView": 2,
      "byteOffset": 2688,
      "componentType": 5126,
      "count": 224,
      "max": [
        0.9951865673065186,
        1.0,
        0.9951865673065186
      ],
      "min": [
        -0.9951865673065186,
        0.0,
        -0.9951865673065186
      ],
      "type": "VEC3"
    },
    {
      "bufferView": 1,
      "componentType": 5126,
      "count": 224,
      "max": [
        0.0,
        1.0
      ],
      "min": [
        0.0,
        1.0
      ],
      "type": "VEC2"
    },
    {
      "bufferView": 1,
      "byteOffset": 1792,
      "componentType": 5126,
      "count": 224,
      "max": [
        0.0,
        1.0
      ],
      "min": [
        0.0,
        1.0
      ],
      "type": "VEC2"
    },
    {
      "bufferView": 0,
      "componentType": 5125,
      "count": 474,
      "type": "SCALAR"
    },
    {
      "bufferView": 2,
      "byteOffset": 5376,
      "componentType": 5126,
      "count": 477,
      "max": [
        1.4869344234466553,
        1.9958314895629883,
        1.4869344234466553
      ],
      "min": [
        -1.4869344234466553,
        -1.5245519876480103,
        -1.4869344234466553
      ],
      "type": "VEC3"
    },
    {
      "bufferView": 2,
      "byteOffset": 11100,
      "componentType": 5126,
      "count": 477,
      "max": [
        1.0,
        0.6857031583786011,
        1.0
      ],
      "min": [
        -1.0,
        -1.0,
        -1.0
      ],
      "type": "VEC3"
    },
    {
      "bufferView": 3,
      "componentType": 5126,
      "count": 477,
      "max": [
        1.0,
        1.0,
        1.0,
        1.0
      ],
      "min": [
        -1.0,
        -1.0,
        -1.0,
        -1.0
      ],
      "type": "VEC4"
    },
    {
      "bufferView": 1,
      "byteOffset": 3584,
      "componentType": 5126,
      "count": 477,
      "max": [
        1.9466432332992554,
        3.30062198638916
      ],
      "min": [
        -0.9466432332992554,
        -0.9466432332992554
      ],
      "type": "VEC2"
    },
    {
      "bufferView": 1,
      "byteOffset": 7400,
      "componentType": 5126,
      "count": 477,
      "max": [
        1.0,
        0.5
      ],
      "min": [
        0.0,
        0.0
      ],
      "type": "VEC2"
    },
    {
      "bufferView": 1,
      "byteOffset": 11216,
      "componentType": 5126,
      "count": 477,
      "max": [
        1.9466432332992554,
        3.30062198638916
      ],
      "min": [
        -0.9466432332992554,
        -0.9466432332992554
      ],
      "type": "VEC2"
    },
    {
      "bufferView": 1,
      "byteOffset": 15032,
      "componentType": 5126,
      "count": 477,
      "max": [
        1.9466432332992554,
        3.30062198638916
      ],
      "min": [
        -0.9466432332992554,
        -0.9466432332992554
      ],
      "type": "VEC2"
    },
    {
      "bufferView": 1,
      "byteOffset": 18848,
      "componentType": 5126,
      "count": 477,
      "max": [
        1.9466432332992554,
        3.30062198638916
      ],
      "min": [
        -0.9466432332992554,
        -0.9466432332992554
      ],
      "type": "VEC2"
    },
    {
      "bufferView": 1,
      "byteOffset": 22664,
      "componentType": 5126,
      "count": 477,
      "max": [
        1.9466432332992554,
        3.30062198638916
      ],
      "min": [
        -0.9466432332992554,
        -0.9466432332992554
      ],
      "type": "VEC2"
    },
    {
      "bufferView": 0,
      "byteOffset": 1896,
      "componentType": 5125,
      "count": 1434,
      "type": "SCALAR"
    }
  ],
  "asset": {
    "extras": {
      "author": "NanukyModelling (https://sketchfab.com/mjmu2011)",
      "license": "SKETCHFAB Standard (https://sketchfab.com/licenses)",
      "source": "https://sketchfab.com/3d-models/super-mario-warp-pipe-842b9c645a7b49c0838144f0d98bb60a",
      "title": "Super Mario Warp Pipe"
    },
    "generator": "Sketchfab-16.56.0",
    "version": "2.0"
  },
  "bufferViews": [
    {
      "buffer": 0,
      "byteLength": 7632,
      "name": "floatBufferViews",
      "target": 34963
    },
    {
      "buffer": 0,
      "byteLength": 26480,
      "byteOffset": 7632,
      "byteStride": 8,
      "name": "floatBufferViews",
      "target": 34962
    },
    {
      "buffer": 0,
      "byteLength": 16824,
      "byteOffset": 34112,
      "byteStride": 12,
      "name": "floatBufferViews",
      "target": 34962
    },
    {
      "buffer": 0,
      "byteLength": 7632,
      "byteOffset": 50936,
      "byteStride": 16,
      "name": "floatBufferViews",
      "target": 34962
    }
  ],
  "buffers": [
    {
      "byteLength": 58568,
      "uri": "scene.bin"
    }
  ],
  "extensionsUsed": [
    "KHR_materials_specular"
  ],
  "images": [
    {
      "uri": "textures/Green_metalic_carpaint_baseColor.jpeg"
    },
    {
      "uri": "textures/Green_metalic_carpaint_metallicRoughness.png"
    },
    {
      "uri": "textures/Green_metalic_carpaint_normal.jpeg"
    },
    {
      "uri": "textures/Green_metalic_carpaint_specularf0.png"
    }
  ],
  "materials": [
    {
      "doubleSided": true,
      "name": "Material.001",
      "pbrMetallicRoughness": {
        "baseColorFactor": [
          0.0,
          0.0,
          0.0,
          1.0
        ],
        "metallicFactor": 0.0
      }
    },
    {
      "doubleSided": true,
      "extensions": {
        "KHR_materials_specular": {
          "specularColorFactor": [
            1.0,
            1.0,
            1.0
          ],
          "specularFactor": 1.0,
          "specularTexture": {
            "index": 3
          }
        }
      },
      "name": "Green_metalic_carpaint",
      "normalTexture": {
        "index": 2
      },
      "pbrMetallicRoughness": {
        "baseColorTexture": {
          "index": 0
        },
        "metallicRoughnessTexture": {
          "index": 1
        }
      }
    }
  ],
  "meshes": [
    {
      "name": "Object_0",
      "primitives": [
        {
          "attributes": {
            "NORMAL": 1,
            "POSITION": 0,
            "TEXCOORD_0": 2,
            "TEXCOORD_1": 3
          },
          "indices": 4,
          "material": 0,
          "mode": 4
        }
      ]
    },
    {
      "name": "Object_1",
      "primitives": [
        {
          "attributes": {
            "NORMAL": 6,
            "POSITION": 5,
            "TANGENT": 7,
            "TEXCOORD_0": 8,
            "TEXCOORD_1": 9,
            "TEXCOORD_2": 10,
            "TEXCOORD_3": 11,
            "TEXCOORD_4": 12,
            "TEXCOORD_5": 13
          },
          "indices": 14,
          "material": 1,
          "mode": 4
        }
      ]
    }
  ],
  "nodes": [
    {
      "children": [
        1
      ],
      "matrix": [
        1.0,
        0.0,
        0.0,
        0.0,
        0.0,
        2.220446049250313e-16,
        -1.0,
        0.0,
        0.0,
        1.0,
        2.220446049250313e-16,
        0.0,
        0.0,
        0.0,
        0.0,
        1.0
      ],
      "name": "Sketchfab_model"
    },
    {
      "children": [
        2
      ],
      "name": "root"
    },
    {
      "children": [
        3
      ],
      "matrix": [
        1.0,
        0.0,
        0.0,
        0.0,
        0.0,
        2.220446049250313e-16,
        1.0,
        0.0,
        0.0,
        -1.0,
        2.220446049250313e-16,
        0.0,
        0.0,
        0.0,
        0.0,
        1.0
      ],
      "name": "GLTF_SceneRootNode"
    },
    {
      "children": [
        4,
        5
      ],
      "matrix": [
        0.9945135116577148,
        0.0,
        0.0,
        0.0,
        0.0,
        0.9296827912330627,
        0.0,
        0.0,
        0.0,
        0.0,
        0.9945135116577148,
        0.0,
        0.0,
        -0.14482749998569489,
        0.0,
        1.0
      ],
      "name": "Circle_0"
    },
    {
      "mesh": 0,
      "name": "Object_4"
    },
    {
      "mesh": 1,
      "name": "Object_5"
    }
  ],
  "samplers": [
    {
      "magFilter": 9729,
      "minFilter": 9987,
      "wrapS": 10497,
      "wrapT": 10497
    }
  ],
  "scene": 0,
  "scenes": [
    {
      "name": "Sketchfab_Scene",
      "nodes": [
        0
      ]
    }
  ],
  "textures": [
    {
      "sampler": 0,
      "source": 0
    },
    {
      "sampler": 0,
      "source": 1
    },
    {
      "sampler": 0,
      "source": 2
    },
    {
      "sampler": 0,
      "source": 3
    }
  ]
}
