{
  "accessors": [
    {
      "bufferView": 3,
      "componentType": 5126,
      "count": 1873,
      "max": [
        1.6032589673995972,
        2.6799540519714355,
        1.6528170108795166
      ],
      "min": [
        -1.6032589673995972,
        -0.023305529728531837,
        -1.230679988861084
      ],
      "type": "VEC3"
    },
    {
      "bufferView": 3,
      "byteOffset": 22476,
      "componentType": 5126,
      "count": 1873,
      "max": [
        0.9990714192390442,
        0.9999991655349731,
        0.9992725849151611
      ],
      "min": [
        -0.9990714192390442,
        -0.9999682307243347,
        -0.9987466931343079
      ],
      "type": "VEC3"
    },
    {
      "bufferView": 2,
      "componentType": 5126,
      "count": 1873,
      "max": [
        0.9954985976219177,
        0.9958342909812927
      ],
      "min": [
        0.00512703089043498,
        0.004562437999993563
      ],
      "type": "VEC2"
    },
    {
      "bufferView": 1,
      "componentType": 5125,
      "count": 10038,
      "type": "SCALAR"
    },
    {
      "bufferView": 3,
      "byteOffset": 44952,
      "componentType": 5126,
      "count": 341,
      "max": [
        0.7737035751342773,
        1.9767409563064575,
        1.5366790294647217
      ],
      "min": [
        -0.7737035751342773,
        1.0259180068969727,
        -0.4092651903629303
      ],
      "type": "VEC3"
    },
    {
      "bufferView": 3,
      "byteOffset": 49044,
      "componentType": 5126,
      "count": 341,
      "max": [
        0.9879127144813538,
        0.9998802542686462,
        0.9982962608337402
      ],
      "min": [
        -0.9879125952720642,
        -0.9985277652740479,
        -0.9037294983863831
      ],
      "type": "VEC3"
    },
    {
      "bufferView": 2,
      "byteOffset": 14984,
      "componentType": 5126,
      "count": 341,
      "max": [
        0.9943541884422302,
        0.9953001737594604
      ],
      "min": [
        0.004394597839564085,
        0.005859494209289551
      ],
      "type": "VEC2"
    },
    {
      "bufferView": 1,
      "byteOffset": 40152,
      "componentType": 5125,
      "count": 1836,
      "type": "SCALAR"
    },
    {
      "bufferView": 3,
      "byteOffset": 53136,
      "componentType": 5126,
      "count": 29,
      "max": [
        0.36190810799598694,
        2.166459083557129,
        1.3877029418945313
      ],
      "min": [
        0.0,
        1.7625609636306763,
        1.2847590446472168
      ],
      "type": "VEC3"
    },
    {
      "bufferView": 3,
      "byteOffset": 53484,
      "componentType": 5126,
      "count": 29,
      "max": [
        0.23856127262115479,
        0.1506246030330658,
        0.9909993410110474
      ],
      "min": [
        0.09915122389793396,
        0.08741847425699234,
        0.9645532965660095
      ],
      "type": "VEC3"
    },
    {
      "bufferView": 2,
      "byteOffset": 17712,
      "componentType": 5126,
      "count": 29,
      "max": [
        1.1191409826278687,
        1.1407469511032104
      ],
      "min": [
        0.1666260063648224,
        0.06591796875
      ],
      "type": "VEC2"
    },
    {
      "bufferView": 1,
      "byteOffset": 47496,
      "componentType": 5125,
      "count": 105,
      "type": "SCALAR"
    },
    {
      "bufferView": 3,
      "byteOffset": 53832,
      "componentType": 5126,
      "count": 29,
      "max": [
        0.0,
        2.166459083557129,
        1.3877029418945313
      ],
      "min": [
        -0.36190810799598694,
        1.7625609636306763,
        1.2847590446472168
      ],
      "type": "VEC3"
    },
    {
      "bufferView": 3,
      "byteOffset": 54180,
      "componentType": 5126,
      "count": 29,
      "max": [
        -0.09915642440319061,
        0.15062494575977325,
        0.990999698638916
      ],
      "min": [
        -0.2385586053133011,
        0.08741793036460876,
        0.9645540118217468
      ],
      "type": "VEC3"
    },
    {
      "bufferView": 2,
      "byteOffset": 17944,
      "componentType": 5126,
      "count": 29,
      "max": [
        1.1191409826278687,
        1.1408690214157104
      ],
      "min": [
        0.1663818061351776,
        0.06591796875
      ],
      "type": "VEC2"
    },
    {
      "bufferView": 1,
      "byteOffset": 47916,
      "componentType": 5125,
      "count": 105,
      "type": "SCALAR"
    },
    {
      "bufferView": 5,
      "componentType": 5126,
      "count": 27,
      "max": [
        1.0,
        0.17970338463783264,
        1.0,
        0.0,
        1.0,
        1.0,
        0.5,
        0.0,
        1.0,
        1.0,
        1.0,
        0.0,
        2.4389328956604004,
        1.9421800374984741,
        1.3226499557495117,
        1.0
      ],
      "min": [
        -1.21192996971331e-07,
        -0.766044020652771,
        -1.0,
        0.0,
        -1.0,
        -1.0,
        -0.4999989867210388,
        0.0,
        -1.0,
        -1.0,
        -1.0,
        0.0,
        -2.438929319381714,
        -2.0311930179595947,
        -1.3226510286331177,
        1.0
      ],
      "type": "MAT4"
    },
    {
      "bufferView": 0,
      "componentType": 5123,
      "count": 1873,
      "type": "VEC4"
    },
    {
      "bufferView": 4,
      "componentType": 5126,
      "count": 1873,
      "max": [
        1.0,
        0.498039186000824,
        0.29019609093666077,
        0.14901958405971527
      ],
      "min": [
        0.33725491166114807,
        0.0,
        0.0,
        0.0
      ],
      "type": "VEC4"
    },
    {
      "bufferView": 0,
      "byteOffset": 14984,
      "componentType": 5123,
      "count": 341,
      "type": "VEC4"
    },
    {
      "bufferView": 4,
      "byteOffset": 29968,
      "componentType": 5126,
      "count": 341,
      "max": [
        1.0,
        0.498039186000824,
        0.3019607961177826,
        0.14901958405971527
      ],
      "min": [
        0.3960784077644348,
        0.0,
        0.0,
        0.0
      ],
      "type": "VEC4"
    },
    {
      "bufferView": 0,
      "byteOffset": 17712,
      "componentType": 5123,
      "count": 29,
      "type": "VEC4"
    },
    {
      "bufferView": 4,
      "byteOffset": 35424,
      "componentType": 5126,
      "count": 29,
      "max": [
        1.0,
        0.4000000059604645,
        0.0,
        0.0
      ],
      "min": [
        0.6000000238418579,
        0.0,
        0.0,
        0.0
      ],
      "type": "VEC4"
    },
    {
      "bufferView": 0,
      "byteOffset": 17944,
      "componentType": 5123,
      "count": 29,
      "type": "VEC4"
    },
    {
      "bufferView": 4,
      "byteOffset": 35888,
      "componentType": 5126,
      "count": 29,
      "max": [
        1.0,
        0.4000000059604645,
        0.0,
        0.0
      ],
      "min": [
        0.6000000238418579,
        0.0,
        0.0,
        0.0
      ],
      "type": "VEC4"
    }
  ],
  "asset": {
    "extras": {
      "author": "DarkNick43 (https://sketchfab.com/darknick43)",
      "license": "CC-BY-4.0 (http://creativecommons.org/licenses/by/4.0/)",
      "source": "https://sketchfab.com/3d-models/super-mario-bros-wonder-smogrin-big-cf9a2d7189b4478083c033c08a4691a2",
      "title": "Super Mario Bros Wonder - Smogrin Big"
    },
    "generator": "Sketchfab-16.21.0",
    "version": "2.0"
  },
  "bufferViews": [
    {
      "buffer": 0,
      "byteLength": 18176,
      "byteStride": 8,
      "name": "shortBufferViews",
      "target": 34962
    },
    {
      "buffer": 0,
      "byteLength": 48336,
      "byteOffset": 18176,
      "name": "floatBufferViews",
      "target": 34963
    },
    {
      "buffer": 0,
      "byteLength": 18176,
      "byteOffset": 66512,
      "byteStride": 8,
      "name": "floatBufferViews",
      "target": 34962
    },
    {
      "buffer": 0,
      "byteLength": 54528,
      "byteOffset": 84688,
      "byteStride": 12,
      "name": "floatBufferViews",
      "target": 34962
    },
    {
      "buffer": 0,
      "byteLength": 36352,
      "byteOffset": 139216,
      "byteStride": 16,
      "name": "floatBufferViews",
      "target": 34962
    },
    {
      "buffer": 0,
      "byteLength": 1728,
      "byteOffset": 175568,
      "name": "floatBufferViews"
    }
  ],
  "buffers": [
    {
      "byteLength": 177296,
      "uri": "scene.bin"
    }
  ],
  "images": [
    {
      "uri": "textures/MokumokumoBigBodyMat_baseColor.png"
    },
    {
      "uri": "textures/MokumokumoBigMouthMat_baseColor.png"
    },
    {
      "uri": "textures/MokumokumoBigEyeLMat_baseColor.png"
    }
  ],
  "materials": [
    {
      "doubleSided": true,
      "name": "MokumokumoBigBodyMat",
      "pbrMetallicRoughness": {
        "baseColorTexture": {
          "index": 0
        },
        "metallicFactor": 0.0
      }
    },
    {
      "doubleSided": true,
      "name": "MokumokumoBigMouthMat",
      "pbrMetallicRoughness": {
        "baseColorTexture": {
          "index": 1
        },
        "metallicFactor": 0.0
      }
    },
    {
      "doubleSided": true,
      "name": "MokumokumoBigEyeLMat",
      "pbrMetallicRoughness": {
        "baseColorTexture": {
          "index": 2
        },
        "metallicFactor": 0.0
      }
    },
    {
      "doubleSided": true,
      "name": "MokumokumoBigEyeRMat",
      "pbrMetallicRoughness": {
        "baseColorTexture": {
          "index": 2
        },
        "metallicFactor": 0.0
      }
    }
  ],
  "meshes": [
    {
      "name": "Body_Model__MokumokumoBigBodyMat_MokumokumoBigBodyMat_0",
      "primitives": [
        {
          "attributes": {
            "JOINTS_0": 17,
            "NORMAL": 1,
            "POSITION": 0,
            "TEXCOORD_0": 2,
            "WEIGHTS_0": 18
          },
          "indices": 3,
          "material": 0,
          "mode": 4
        }
      ]
    },
    {
      "name": "Body_Model__MokumokumoBigMouthMat_MokumokumoBigMouthMat_0",
      "primitives": [
        {
          "attributes": {
            "JOINTS_0": 19,
            "NORMAL": 5,
            "POSITION": 4,
            "TEXCOORD_0": 6,
            "WEIGHTS_0": 20
          },
          "indices": 7,
          "material": 1,
          "mode": 4
        }
      ]
    },
    {
      "name": "Eye_Model__MokumokumoBigEyeLMat_MokumokumoBigEyeLMat_0",
      "primitives": [
        {
          "attributes": {
            "JOINTS_0": 21,
            "NORMAL": 9,
            "POSITION": 8,
            "TEXCOORD_0": 10,
            "WEIGHTS_0": 22
          },
          "indices": 11,
          "material": 2,
          "mode": 4
        }
      ]
    },
    {
      "name": "Eye_Model__MokumokumoBigEyeRMat_MokumokumoBigEyeRMat_0",
      "primitives": [
        {
          "attributes": {
            "JOINTS_0": 23,
            "NORMAL": 13,
            "POSITION": 12,
            "TEXCOORD_0": 14,
            "WEIGHTS_0": 24
          },
          "indices": 15,
          "material": 3,
          "mode": 4
        }
      ]
    }
  ],
  "nodes": [
    {
      "children": [
        1
      ],
      "matrix": [
        1.0,
        0.0,
        0.0,
        0.0,
        0.0,
        2.220446049250313e-16,
        -1.0,
        0.0,
        0.0,
        1.0,
        2.220446049250313e-16,
        0.0,
        0.0,
        0.0,
        0.0,
        1.0
      ],
      "name": "Sketchfab_model"
    },
    {
      "children": [
        2
      ],
      "matrix": [
        0.009999999776482582,
        0.0,
        0.0,
        0.0,
        0.0,
        0.0,
        0.009999999776482582,
        0.0,
        0.0,
        -0.009999999776482582,
        0.0,
        0.0,
        0.0,
        0.0,
        0.0,
        1.0
      ],
      "name": "c364cf610fb844eb8b1d3b84aa1445f3.fbx"
    },
    {
      "children": [
        3
      ],
      "name": "RootNode"
    },
    {
      "children": [
        4
      ],
      "name": "Armature"
    },
    {
      "children": [
        5,
        33,
        35,
        37,
        39,
        32,
        34,
        36,
        38
      ],
      "name": "Object_4"
    },
    {
      "children": [
        6
      ],
      "name": "_rootJoint"
    },
    {
      "children": [
        7
      ],
      "name": "Root_00"
    },
    {
      "children": [
        8
      ],
      "name": "Rot_Root_01"
    },
    {
      "children": [
        9
      ],
      "name": "Skl_Root_02",
      "translation": [
        0.0,
        1.0582020282745361,
        0.16731959581375122
      ]
    },
    {
      "children": [
        10,
        11,
        12,
        13,
        14,
        15,
        29
      ],
      "name": "Spine_1_03",
      "rotation": [
        0.4999999701976776,
        0.49999991059303284,
        0.4999999701976776,
        0.5000001192092896
      ]
    },
    {
      "name": "Eye_L_04",
      "rotation": [
        0.7071068286895752,
        0.7071067094802856,
        3.090863032184643e-08,
        7.549792968575275e-08
      ],
      "translation": [
        0.8839796185493469,
        1.2066500186920166,
        0.0265048798173666
      ]
    },
    {
      "name": "Eye_R_05",
      "rotation": [
        0.7071068286895752,
        -0.7071067094802856,
        3.090863032184643e-08,
        -7.549792968575275e-08
      ],
      "translation": [
        0.8839781284332275,
        1.2066500186920166,
        -0.02650490030646324
      ]
    },
    {
      "name": "Forehead_06",
      "rotation": [
        0.7071068286895752,
        0.7071067094802856,
        3.090863032184643e-08,
        7.549792968575275e-08
      ],
      "translation": [
        0.9729921221733093,
        1.2066500186920166,
        0.0
      ]
    },
    {
      "name": "Horn_L_07",
      "rotation": [
        1.1166743085766484e-08,
        -0.258818656206131,
        2.9921194411031138e-09,
        0.965925931930542
      ],
      "translation": [
        1.359213948249817,
        0.13930900394916534,
        0.6907715797424316
      ]
    },
    {
      "name": "Horn_R_08",
      "rotation": [
        0.2588190734386444,
        -2.3778403246410562e-08,
        0.965925931930542,
        7.54978870531886e-08
      ],
      "scale": [
        1.0,
        1.0,
        0.9999998807907104
      ],
      "translation": [
        1.3592180013656616,
        0.13930949568748474,
        -0.6907719969749451
      ]
    },
    {
      "children": [
        16,
        17,
        18,
        19,
        20,
        25,
        26,
        27,
        28
      ],
      "name": "Mouth_09",
      "rotation": [
        1.3234889800848443e-23,
        1.1751069259398497e-23,
        -0.0,
        1.0
      ],
      "translation": [
        0.5429173111915588,
        0.2788640856742859,
        0.0
      ]
    },
    {
      "name": "Cheek_1_L_010",
      "rotation": [
        2.5695298053056242e-23,
        6.978335353927446e-24,
        0.7071067690849304,
        0.7071068286895752
      ],
      "translation": [
        -0.3029187023639679,
        0.4529547095298767,
        1.3226510286331177
      ]
    },
    {
      "name": "Cheek_1_R_011",
      "rotation": [
        9.076775570435902e-24,
        9.640185550971085e-24,
        -0.7071067690849304,
        0.7071068286895752
      ],
      "translation": [
        -0.3029192090034485,
        0.45295441150665283,
        -1.3226499557495117
      ]
    },
    {
      "name": "Cheek_2_L_012",
      "rotation": [
        0.7071068286895752,
        0.7071067094802856,
        4.969833966583792e-08,
        -4.371138828673793e-08
      ],
      "translation": [
        0.09439802914857864,
        1.1080540418624878,
        0.6891111731529236
      ]
    },
    {
      "name": "Cheek_2_R_013",
      "rotation": [
        0.7071068286895752,
        -0.7071067094802856,
        -1.2118907655178646e-08,
        7.549791547489804e-08
      ],
      "translation": [
        0.09440082311630249,
        1.1080559492111206,
        -0.6891109943389893
      ]
    },
    {
      "children": [
        21,
        22,
        23,
        24
      ],
      "name": "Chin_014",
      "rotation": [
        1.3234889800848443e-23,
        1.1751068470537592e-23,
        -0.0,
        1.0
      ],
      "translation": [
        -0.09644514322280884,
        -0.00531314080581069,
        0.0
      ]
    },
    {
      "name": "Lip_D_015",
      "rotation": [
        0.7071068286895752,
        0.7071067094802856,
        4.969833966583792e-08,
        -4.371138828673793e-08
      ],
      "translation": [
        -0.35556191205978394,
        0.9106950163841248,
        5.293955920339377e-23
      ]
    },
    {
      "name": "Lip_D_1_L_016",
      "rotation": [
        0.6951862573623657,
        0.6951861381530762,
        -0.12929098308086395,
        -0.1292910873889923
      ],
      "scale": [
        1.0,
        1.0000001192092896,
        1.0
      ],
      "translation": [
        -0.2829135060310364,
        0.8352931141853333,
        0.4372220039367676
      ]
    },
    {
      "name": "Lip_D_1_R_017",
      "rotation": [
        0.6951862573623657,
        -0.6951861381530762,
        0.12929099798202515,
        -0.12929107248783112
      ],
      "scale": [
        1.0,
        1.0000001192092896,
        1.0
      ],
      "translation": [
        -0.28291401267051697,
        0.835289478302002,
        -0.4372220039367676
      ]
    },
    {
      "name": "Teeth_D_018",
      "rotation": [
        1.3234889800848443e-23,
        1.1751067681676687e-23,
        -0.0,
        1.0
      ],
      "translation": [
        -0.3485453128814697,
        0.6898428201675415,
        0.0
      ]
    },
    {
      "name": "Lip_U_019",
      "rotation": [
        2.5695298053056242e-23,
        6.978335353927446e-24,
        0.7071067690849304,
        0.7071068286895752
      ],
      "translation": [
        0.009423491545021534,
        1.164957046508789,
        5.293955920339377e-23
      ]
    },
    {
      "name": "Lip_U_L_020",
      "rotation": [
        0.18288488686084747,
        -0.05934187397360802,
        0.6765709519386292,
        0.7108328938484192
      ],
      "scale": [
        1.0,
        0.9999999403953552,
        1.0000001192092896
      ],
      "translation": [
        0.05020754039287567,
        1.0767240524291992,
        0.3310635983943939
      ]
    },
    {
      "name": "Lip_U_R_021",
      "rotation": [
        -0.059341851621866226,
        -0.18288490176200867,
        -0.7108327150344849,
        0.6765711307525635
      ],
      "scale": [
        1.0000001192092896,
        1.0000001192092896,
        1.0000001192092896
      ],
      "translation": [
        0.05021081119775772,
        1.076725959777832,
        -0.33106398582458496
      ]
    },
    {
      "name": "Teeth_U_022",
      "rotation": [
        -4.371138828673793e-08,
        1.0,
        -4.371138828673793e-08,
        -4.371138828673793e-08
      ],
      "translation": [
        0.0560261607170105,
        0.8419951796531677,
        0.0
      ]
    },
    {
      "children": [
        30,
        31
      ],
      "name": "Waist_023",
      "rotation": [
        -4.371138828673793e-08,
        1.0,
        -4.371138828673793e-08,
        -4.371138828673793e-08
      ]
    },
    {
      "name": "Leg_L_024",
      "rotation": [
        0.6644629240036011,
        0.24184469878673553,
        -0.24184466898441315,
        0.6644631624221802
      ],
      "scale": [
        1.0000001192092896,
        1.0,
        1.0
      ],
      "translation": [
        0.7780420184135437,
        0.3299342095851898,
        -0.5840268135070801
      ]
    },
    {
      "name": "Leg_R_025",
      "rotation": [
        -0.24184466898441315,
        0.6644630432128906,
        0.6644629836082458,
        0.24184486269950867
      ],
      "scale": [
        0.9999999403953552,
        0.9999999403953552,
        1.0
      ],
      "translation": [
        0.7780420184135437,
        0.32993438839912415,
        0.5840269923210144
      ]
    },
    {
      "matrix": [
        1.0,
        0.0,
        0.0,
        0.0,
        0.0,
        1.0,
        8.580092967290648e-25,
        0.0,
        0.0,
        -8.580092967290648e-25,
        1.0,
        0.0,
        0.0,
        -2.220446049250313e-16,
        2.7755575615628914e-17,
        1.0
      ],
      "name": "Object_32"
    },
    {
      "mesh": 0,
      "name": "Object_33",
      "skin": 0
    },
    {
      "matrix": [
        1.0,
        0.0,
        0.0,
        0.0,
        0.0,
        1.0,
        8.580092967290648e-25,
        0.0,
        0.0,
        -8.580092967290648e-25,
        1.0,
        0.0,
        0.0,
        -2.220446049250313e-16,
        2.7755575615628914e-17,
        1.0
      ],
      "name": "Object_34"
    },
    {
      "mesh": 1,
      "name": "Object_35",
      "skin": 0
    },
    {
      "matrix": [
        1.0,
        0.0,
        0.0,
        0.0,
        0.0,
        1.0,
        8.580092967290648e-25,
        0.0,
        0.0,
        -8.580092967290648e-25,
        1.0,
        0.0,
        0.0,
        -2.220446049250313e-16,
        2.7755575615628914e-17,
        1.0
      ],
      "name": "Object_36"
    },
    {
      "mesh": 2,
      "name": "Object_37",
      "skin": 0
    },
    {
      "matrix": [
        1.0,
        0.0,
        0.0,
        0.0,
        0.0,
        1.0,
        8.580092967290648e-25,
        0.0,
        0.0,
        -8.580092967290648e-25,
        1.0,
        0.0,
        0.0,
        -2.220446049250313e-16,
        2.7755575615628914e-17,
        1.0
      ],
      "name": "Object_38"
    },
    {
      "mesh": 3,
      "name": "Object_39",
      "skin": 0
    }
  ],
  "samplers": [
    {
      "magFilter": 9729,
      "minFilter": 9987,
      "wrapS": 10497,
      "wrapT": 10497
    }
  ],
  "scene": 0,
  "scenes": [
    {
      "name": "Sketchfab_Scene",
      "nodes": [
        0
      ]
    }
  ],
  "skins": [
    {
      "inverseBindMatrices": 16,
      "joints": [
        5,
        6,
        7,
        8,
        9,
        10,
        11,
        12,
        13,
        14,
        15,
        16,
        17,
        18,
        19,
        20,
        21,
        22,
        23,
        24,
        25,
        26,
        27,
        28,
        29,
        30,
        31
      ],
      "skeleton": 5
    }
  ],
  "textures": [
    {
      "sampler": 0,
      "source": 0
    },
    {
      "sampler": 0,
      "source": 1
    },
    {
      "sampler": 0,
      "source": 2
    }
  ]
}
